<svg xmlns="http://www.w3.org/2000/svg" viewBox="0 0 200 200" width="200" height="200">
  <defs>
    <style>
      .sec-text { font-family: 'Arial', 'Helvetica', sans-serif; font-weight: 700; letter-spacing: 2px; }
    </style>
  </defs>

  <!-- Outer circle -->
  <circle cx="100" cy="100" r="96" fill="none" stroke="#3D3D3D" stroke-width="3"/>
  <!-- Inner circle -->
  <circle cx="100" cy="100" r="82" fill="none" stroke="#3D3D3D" stroke-width="1.5"/>
  <!-- Dotted ring -->
  <circle cx="100" cy="100" r="78" fill="none" stroke="#3D3D3D" stroke-width="0.5" stroke-dasharray="2 3"/>

  <!-- Top arc text -->
  <path id="topArc" d="M 22,100 a 78,78 0 0,1 156,0" fill="none"/>
  <text class="sec-text" fill="#3D3D3D" font-size="10" text-anchor="middle">
    <textPath href="#topArc" startOffset="50%">SECURITIES AND EXCHANGE COMMISSION</textPath>
  </text>

  <!-- Bottom arc text -->
  <path id="bottomArc" d="M 32,108 a 70,70 0 0,0 136,0" fill="none"/>
  <text class="sec-text" fill="#3D3D3D" font-size="14" text-anchor="middle" letter-spacing="4">
    <textPath href="#bottomArc" startOffset="50%">GHANA</textPath>
  </text>

  <!-- Decorative dots between arcs -->
  <circle cx="28" cy="106" r="2.5" fill="#B8860B"/>
  <circle cx="172" cy="106" r="2.5" fill="#B8860B"/>

  <!-- Central emblem - gold crosshatch knot pattern -->
  <g transform="translate(100,86)" fill="none" stroke="#B8860B" stroke-width="2.5" stroke-linecap="round" stroke-linejoin="round">
    <!-- Central vertical ellipse -->
    <ellipse cx="0" cy="0" rx="5" ry="16"/>
    <!-- Central horizontal ellipse -->
    <ellipse cx="0" cy="0" rx="16" ry="5"/>

    <!-- Top-left curl -->
    <path d="M-4,-7 C-6,-18 -14,-20 -18,-14 C-22,-8 -16,-2 -8,-2"/>
    <!-- Top-right curl -->
    <path d="M4,-7 C6,-18 14,-20 18,-14 C22,-8 16,-2 8,-2"/>
    <!-- Bottom-left curl -->
    <path d="M-4,7 C-6,18 -14,20 -18,14 C-22,8 -16,2 -8,2"/>
    <!-- Bottom-right curl -->
    <path d="M4,7 C6,18 14,20 18,14 C22,8 16,2 8,2"/>

    <!-- Outer wing curves -->
    <path d="M-20,-12 C-28,-6 -28,6 -20,12" stroke-width="2"/>
    <path d="M20,-12 C28,-6 28,6 20,12" stroke-width="2"/>
    <path d="M-12,-20 C-6,-28 6,-28 12,-20" stroke-width="2"/>
    <path d="M-12,20 C-6,28 6,28 12,20" stroke-width="2"/>

    <!-- Terminal dots -->
    <circle cx="0" cy="-18" r="2.5" fill="#B8860B"/>
    <circle cx="0" cy="18" r="2.5" fill="#B8860B"/>
    <circle cx="-22" cy="0" r="2.5" fill="#B8860B"/>
    <circle cx="22" cy="0" r="2.5" fill="#B8860B"/>
    <circle cx="-14" cy="-18" r="1.5" fill="#B8860B"/>
    <circle cx="14" cy="-18" r="1.5" fill="#B8860B"/>
    <circle cx="-14" cy="18" r="1.5" fill="#B8860B"/>
    <circle cx="14" cy="18" r="1.5" fill="#B8860B"/>
  </g>
</svg>
